<svg id="Capa_1" data-name="Capa 1" xmlns="http://www.w3.org/2000/svg" viewBox="0 0 446.51 317.45"><defs><style>.cls-1{fill:#fff;}</style></defs><title>Logo_1</title><polygon class="cls-1" points="167.98 48.92 21.47 302.23 181.91 302.23 219.81 236.92 205.09 211.71 167.65 276.75 65.14 276.75 168.26 98.42 167.98 48.92"/><path class="cls-1" d="M425,302.19H280.71L169.18,109.06A62.51,62.51,0,0,1,277.45,46.53ZM226.33,38.49a42.09,42.09,0,0,0-42.08,42.08,41.65,41.65,0,0,0,6.09,21.81l.21.32,35.78,62,35.78-62,.21-.32a41.57,41.57,0,0,0,6.1-21.81A42.1,42.1,0,0,0,226.33,38.49Z"/></svg>