<svg id="Capa_1" data-name="Capa 1" xmlns="http://www.w3.org/2000/svg" viewBox="0 0 446.51 317.45"><defs><style>.cls-1{fill:#fff;stroke:#fdfdfd;stroke-miterlimit:10;}</style></defs><title>Logo_4_-03</title><path d="M423.31,302.17H279L167.47,109A62.51,62.51,0,0,1,275.73,46.52Z"/><polygon points="166.26 48.9 19.75 302.21 180.19 302.21 218.09 236.9 203.37 211.69 165.93 276.73 63.42 276.73 166.54 98.4 166.26 48.9"/><path class="cls-1" d="M266.7,80.56a41.56,41.56,0,0,1-6.1,21.8l-.21.33-35.78,62-35.78-62-.21-.33a41.64,41.64,0,0,1-6.09-21.8,42.09,42.09,0,1,1,84.17,0Z"/></svg>