<svg id="Capa_1" data-name="Capa 1" xmlns="http://www.w3.org/2000/svg" viewBox="0 0 446.51 317.45"><defs><style>.cls-1{fill:#fff;}.cls-2{stroke:#fdfdfd;stroke-miterlimit:10;}</style></defs><title>Logo_2_Mesa de trabajo 1</title><path class="cls-1" d="M421.6,302.17H277.27L165.75,109A62.51,62.51,0,0,1,274,46.52Z"/><polygon class="cls-1" points="164.54 48.9 18.03 302.21 178.47 302.21 216.38 236.9 201.65 211.69 164.21 276.73 61.7 276.73 164.82 98.4 164.54 48.9"/><path class="cls-2" d="M265,80.56a41.56,41.56,0,0,1-6.1,21.8l-.21.33-35.78,62-35.78-62-.21-.33a41.64,41.64,0,0,1-6.09-21.8,42.09,42.09,0,1,1,84.17,0Z"/></svg>