<svg id="Capa_1" data-name="Capa 1" xmlns="http://www.w3.org/2000/svg" viewBox="0 0 446.51 317.45"><title>Logo_3_</title><polygon points="169.7 48.92 23.19 302.23 183.63 302.23 221.53 236.92 206.81 211.71 169.37 276.75 66.86 276.75 169.98 98.42 169.7 48.92"/><path d="M426.75,302.19H282.42L170.9,109.06A62.51,62.51,0,0,1,279.17,46.53ZM228.05,38.49A42.09,42.09,0,0,0,186,80.57a41.65,41.65,0,0,0,6.09,21.81l.21.32,35.78,62,35.78-62,.21-.32a41.57,41.57,0,0,0,6.1-21.81A42.1,42.1,0,0,0,228.05,38.49Z"/></svg>